#!OML:ASF X:\für Bonn\!DataBase\2005_08_10_Bjorn_Final\c3d\bjorn.ASF
:FULLY-SPECIFIED
:DEGREES
61
root -21.5228 19.4546 0.198484 -223.157 -88.8843 -131.388
lowerback -13.1888 4.35576 -4.06103
upperback 3.38032 7.07279 -6.49923
thorax 11.508 3.2826 -3.22044
lowerneck -0.1481 -6.37342 4.56203
upperneck 1.15716 -8.49204 -5.55186
head -0.0721612 -4.25008 -2.49187
rclavicle -8.78628e-014 9.22361e-014
rhumerus 26.7542 -0.146673 -55.9961
rradius 78.2142
rwrist -15.5974
rhand -16.3554 8.13435
rfingers 7.12502
rthumb 9.85729 -21.6149
lclavicle -8.78628e-014 9.22361e-014
lhumerus -26.2026 30.5991 71.1314
lradius 14.0414
lwrist -52.5411
lhand -16.2913 -5.71729
lfingers 7.12502
lthumb 9.91914 24.029
rfemur -13.2443 -14.7258 17.6637
rtibia 25.0379
rfoot -7.98828 20.9905
rtoes 6.73199
lfemur -12.0256 16.0298 -16.65
ltibia 24.1104
lfoot -8.88809 -16.7989
ltoes 2.84385
62
root -21.5197 19.4542 0.19705 -222.385 -88.8476 -132.203
lowerback -13.1603 4.43272 -4.07316
upperback 3.3359 7.17625 -6.57239
thorax 11.4548 3.33404 -3.2727
lowerneck -0.108368 -6.44388 4.62008
upperneck 1.26473 -8.58044 -5.47144
head -0.0486016 -4.29307 -2.47531
rclavicle -4.96962e-014 -9.54166e-015
rhumerus 28.2828 0.222707 -54.7218
rradius 76.3261
rwrist -16.5935
rhand -15.4241 7.76517
rfingers 7.12502
rthumb 10.7557 -21.9395
lclavicle -4.96962e-014 -9.54166e-015
lhumerus -25.9914 29.6156 71.395
lradius 14.1409
lwrist -51.7558
lhand -16.389 -5.80313
lfingers 7.12502
lthumb 9.82491 23.9477
rfemur -13.2198 -14.7211 17.6774
rtibia 25.0513
rfoot -7.97289 21.0207
rtoes 6.76269
lfemur -11.9725 16.056 -16.6144
ltibia 24.1049
lfoot -8.89625 -16.7766
ltoes 2.85729
63
root -21.5161 19.4536 0.19459 -221.86 -88.8152 -132.749
lowerback -13.1581 4.51081 -4.09267
upperback 3.29574 7.28526 -6.64836
thorax 11.4221 3.38715 -3.32109
lowerneck -0.0683622 -6.51048 4.67053
upperneck 1.34176 -8.66482 -5.35261
head -0.0322272 -4.33379 -2.44429
rclavicle -5.08889e-014 -6.36111e-014
rhumerus 29.794 0.555522 -53.5196
rradius 74.295
rwrist -17.4397
rhand -14.5949 7.60318
rfingers 7.12502
rthumb 11.5555 -22.0583
lclavicle -5.08889e-014 -6.36111e-014
lhumerus -25.7934 28.75 71.6136
lradius 14.2562
lwrist -51.0956
lhand -16.4672 -5.87671
lfingers 7.12502
lthumb 9.74939 23.8776
rfemur -13.2227 -14.7481 17.7001
rtibia 25.0713
rfoot -7.94779 21.0774
rtoes 6.71178
lfemur -11.9485 16.0773 -16.5877
ltibia 24.0939
lfoot -8.90789 -16.7426
ltoes 2.75738
64
root -21.5135 19.4532 0.192355 -221.486 -88.7823 -133.16
lowerback -13.1536 4.59058 -4.09658
upperback 3.27522 7.39589 -6.72802
thorax 11.4133 3.44193 -3.38189
lowerneck -0.101705 -6.57954 4.75082
upperneck 1.46176 -8.75437 -5.25324
head 0.00762508 -4.37797 -2.42877
rclavicle 4.73108e-014 -7.31528e-014
rhumerus 31.2715 0.89033 -52.3221
rradius 72.1766
rwrist -18.1991
rhand -13.8871 7.53954
rfingers 7.12502
rthumb 12.238 -22.0824
lclavicle 4.73108e-014 -7.31528e-014
lhumerus -25.5552 27.772 71.8662
lradius 14.365
lwrist -50.2702
lhand -16.5419 -5.94148
lfingers 7.12502
lthumb 9.67733 23.8162
rfemur -13.1948 -14.7202 17.7181
rtibia 25.0823
rfoot -7.95537 21.0793
rtoes 6.70116
lfemur -11.9071 16.0971 -16.5504
ltibia 24.093
lfoot -8.91525 -16.7203
ltoes 2.70993
65
root -21.51 19.4524 0.190288 -220.738 -88.7654 -133.936
lowerback -13.1349 4.65893 -4.13801
upperback 3.23649 7.49259 -6.78732
thorax 11.3668 3.48733 -3.40375
lowerneck -0.0938654 -6.64127 4.78067
upperneck 1.5742 -8.83296 -5.15403
head 0.0409975 -4.41635 -2.40291
rclavicle 9.10434e-014 2.8625e-014
rhumerus 32.6399 1.29614 -51.0889
rradius 70.0848
rwrist -18.9018
rhand -13.083 7.43016
rfingers 7.12502
rthumb 13.0132 -22.144
lclavicle 9.10434e-014 2.8625e-014
lhumerus -25.4001 26.9896 72.0579
lradius 14.46
lwrist -49.6617
lhand -16.617 -5.96135
lfingers 7.12502
lthumb 9.60488 23.7997
rfemur -13.1887 -14.7452 17.7207
rtibia 25.0998
rfoot -7.93562 21.1241
rtoes 6.71531
lfemur -11.8763 16.1111 -16.5357
ltibia 24.0879
lfoot -8.92452 -16.7034
ltoes 2.65532
66
root -21.5067 19.4523 0.187792 -221.297 -88.7353 -133.408
lowerback -13.1177 4.72841 -4.13667
upperback 3.21168 7.58612 -6.85512
thorax 11.3441 3.53437 -3.45923
lowerneck -0.167708 -6.6925 4.86276
upperneck 1.73335 -8.9001 -5.05887
head 0.100984 -4.44961 -2.39229
rclavicle 1.03368e-014 -6.67916e-014
rhumerus 33.9082 1.72171 -49.8525
rradius 68.0905
rwrist -19.57
rhand -12.1693 7.2514
rfingers 7.12502
rthumb 13.8939 -22.2645
lclavicle 1.03368e-014 -6.67916e-014
lhumerus -25.2195 26.1412 72.2495
lradius 14.5741
lwrist -48.9421
lhand -16.6322 -5.93677
lfingers 7.12502
lthumb 9.59026 23.825
rfemur -13.1719 -14.6984 17.7582
rtibia 25.1099
rfoot -7.9516 21.0929
rtoes 6.60923
lfemur -11.8488 16.1172 -16.4897
ltibia 24.0882
lfoot -8.94608 -16.6697
ltoes 2.52449
67
root -21.5032 19.4515 0.186194 -221.049 -88.7285 -133.685
lowerback -13.114 4.79347 -4.16948
upperback 3.20047 7.68048 -6.90599
thorax 11.3377 3.57832 -3.47598
lowerneck -0.228017 -6.74084 4.88726
upperneck 1.85813 -8.96405 -4.97032
head 0.15038 -4.48137 -2.3726
rclavicle 5.1684e-015 4.13472e-014
rhumerus 35.1161 2.21197 -48.5112
rradius 66.1731
rwrist -20.4202
rhand -11.4047 7.07943
rfingers 7.12502
rthumb 14.6306 -22.3845
lclavicle 5.1684e-015 4.13472e-014
lhumerus -25.0393 25.4334 72.4428
lradius 14.6682
lwrist -48.3476
lhand -16.656 -5.9447
lfingers 7.12502
lthumb 9.56722 23.8181
rfemur -13.1618 -14.7438 17.7589
rtibia 25.1256
rfoot -7.9276 21.1441
rtoes 6.62962
lfemur -11.8219 16.1146 -16.477
ltibia 24.083
lfoot -8.94517 -16.6635
ltoes 2.49392
68
root -21.5 19.4512 0.184314 -221.866 -88.7018 -132.899
lowerback -13.0894 4.86874 -4.15176
upperback 3.16696 7.77759 -6.97252
thorax 11.3032 3.62858 -3.53889
lowerneck -0.234285 -6.78764 4.94963
upperneck 1.97471 -9.02467 -4.84417
head 0.188296 -4.51021 -2.34498
rclavicle -1.82882e-014 -3.18055e-015
rhumerus 36.2276 2.76954 -47.1665
rradius 64.2934
rwrist -21.4565
rhand -10.8279 6.93618
rfingers 7.12502
rthumb 15.1862 -22.4865
lclavicle -1.82882e-014 -3.18055e-015
lhumerus -24.9025 24.7533 72.5587
lradius 14.7563
lwrist -47.7921
lhand -16.6225 -5.95095
lfingers 7.12502
lthumb 9.59957 23.8103
rfemur -13.1443 -14.7852 17.7941
rtibia 25.1364
rfoot -7.93158 21.1985
rtoes 6.51726
lfemur -11.7908 16.1129 -16.4269
ltibia 24.0833
lfoot -8.95119 -16.6421
ltoes 2.45586
69
root -21.4971 19.4516 0.182442 -221.669 -88.6935 -133.124
lowerback -13.078 4.94123 -4.16642
upperback 3.15368 7.87916 -7.0395
thorax 11.2959 3.6779 -3.58241
lowerneck -0.311133 -6.83254 5.016
upperneck 2.10862 -9.08578 -4.74322
head 0.242239 -4.54007 -2.3298
rclavicle -5.56597e-014 -3.18055e-015
rhumerus 37.3197 3.33767 -45.7888
rradius 62.466
rwrist -22.5729
rhand -10.3765 6.82186
rfingers 7.12502
rthumb 15.6211 -22.5674
lclavicle -5.56597e-014 -3.18055e-015
lhumerus -24.7201 24.1284 72.6961
lradius 14.832
lwrist -47.2603
lhand -16.6068 -5.93252
lfingers 7.12502
lthumb 9.61473 23.8281
rfemur -13.1284 -14.7586 17.7972
rtibia 25.1516
rfoot -7.9537 21.1814
rtoes 6.38065
lfemur -11.7633 16.111 -16.4153
ltibia 24.0798
lfoot -9.00527 -16.607
ltoes 2.23184
70
root -21.4939 19.4508 0.18084 -222.644 -88.6746 -132.179
lowerback -13.0607 5.01258 -4.15518
upperback 3.13385 7.97299 -7.08967
thorax 11.278 3.72531 -3.62387
lowerneck -0.364194 -6.87705 5.05378
upperneck 2.2591 -9.14523 -4.64011
head 0.298886 -4.56883 -2.30859
rclavicle 2.0276e-014 -4.13472e-014
rhumerus 38.3604 3.90693 -44.4034
rradius 60.7011
rwrist -23.6383
rhand -9.92241 6.69716
rfingers 7.12502
rthumb 16.0584 -22.6574
lclavicle 2.0276e-014 -4.13472e-014
lhumerus -24.5951 23.7407 72.7501
lradius 14.8856
lwrist -46.9692
lhand -16.6256 -5.98368
lfingers 7.12502
lthumb 9.59662 23.7777
rfemur -13.1167 -14.8057 17.8305
rtibia 25.1643
rfoot -7.93116 21.2235
rtoes 6.40265
lfemur -11.7386 16.1018 -16.3697
ltibia 24.0801
lfoot -8.99751 -16.5883
ltoes 2.31128
71
root -21.4908 19.4504 0.179354 -222.661 -88.6718 -132.19
lowerback -13.0453 5.09885 -4.15061
upperback 3.11821 8.09015 -7.16631
thorax 11.2712 3.78388 -3.68543
lowerneck -0.409497 -6.92742 5.11714
upperneck 2.37587 -9.21398 -4.51033
head 0.343319 -4.60166 -2.28198
rclavicle -3.06128e-014 9.54166e-015
rhumerus 39.3116 4.41809 -43.0556
rradius 59.0356
rwrist -24.5485
rhand -9.4477 6.49687
rfingers 7.12502
rthumb 16.5154 -22.8202
lclavicle -3.06128e-014 9.54166e-015
lhumerus -24.4376 23.227 72.8314
lradius 14.9528
lwrist -46.5716
lhand -16.6419 -6.00007
lfingers 7.12502
lthumb 9.58082 23.7621
rfemur -13.1018 -14.8319 17.832
rtibia 25.1774
rfoot -7.93787 21.2534
rtoes 6.31152
lfemur -11.7109 16.0919 -16.3553
ltibia 24.0797
lfoot -9.0148 -16.5665
ltoes 2.21891
72
root -21.4875 19.4498 0.177723 -223.637 -88.6718 -131.235
lowerback -13.0415 5.17571 -4.13166
upperback 3.1103 8.19414 -7.23922
thorax 11.2812 3.83685 -3.75287
lowerneck -0.47958 -6.97347 5.20539
upperneck 2.50522 -9.27845 -4.40109
head 0.393995 -4.63235 -2.26791
rclavicle 3.61788e-014 4.77083e-014
rhumerus 40.2323 4.89875 -41.7515
rradius 57.4709
rwrist -25.3281
rhand -8.9264 6.19133
rfingers 7.12502
rthumb 17.0173 -23.0833
lclavicle 3.61788e-014 4.77083e-014
lhumerus -24.2614 22.8839 72.8585
lradius 14.9787
lwrist -46.3414
lhand -16.6667 -6.04359
lfingers 7.12502
lthumb 9.55693 23.7197
rfemur -13.0908 -14.8201 17.8523
rtibia 25.1887
rfoot -7.95383 21.2286
rtoes 6.21032
lfemur -11.7004 16.0663 -16.332
ltibia 24.0831
lfoot -9.03737 -16.5309
ltoes 2.08379
73
root -21.4851 19.4494 0.176578 -224.434 -88.6629 -130.466
lowerback -13.0355 5.25552 -4.10704
upperback 3.10386 8.30067 -7.30377
thorax 11.2914 3.89124 -3.81375
lowerneck -0.543389 -7.01614 5.28162
upperneck 2.62857 -9.33853 -4.30143
head 0.442056 -4.66081 -2.25459
rclavicle -1.59028e-014 3.18055e-015
rhumerus 41.1204 5.3646 -40.4828
rradius 56.0361
rwrist -26.0159
rhand -8.34184 5.68857
rfingers 7.12502
rthumb 17.5799 -23.5366
lclavicle -1.59028e-014 3.18055e-015
lhumerus -24.1063 22.5662 72.8774
lradius 14.998
lwrist -46.1385
lhand -16.7304 -6.09664
lfingers 7.12502
lthumb 9.49544 23.6694
rfemur -13.0737 -14.8989 17.8689
rtibia 25.1999
rfoot -7.92209 21.2986
rtoes 6.24499
lfemur -11.6736 16.0479 -16.3004
ltibia 24.0879
lfoot -9.0587 -16.5093
ltoes 1.98868
74
root -21.4828 19.4491 0.175079 -224.77 -88.6659 -130.158
lowerback -13.0255 5.34072 -4.09692
upperback 3.09319 8.41633 -7.3763
thorax 11.2946 3.94925 -3.8737
lowerneck -0.578462 -7.07088 5.35127
upperneck 2.74574 -9.4142 -4.18137
head 0.483869 -4.69654 -2.23206
rclavicle -1.98785e-015 6.36111e-014
rhumerus 41.9295 5.81536 -39.2375
rradius 54.7377
rwrist -26.6217
rhand -7.72292 5.11309
rfingers 7.12502
rthumb 18.1754 -24.0577
lclavicle -1.98785e-015 6.36111e-014
lhumerus -23.965 22.1941 72.9109
lradius 15.0308
lwrist -45.9062
lhand -16.8196 -6.12975
lfingers 7.12502
lthumb 9.40945 23.6402
rfemur -13.0553 -14.9054 17.8715
rtibia 25.2111
rfoot -7.9417 21.3014
rtoes 6.14562
lfemur -11.6498 16.0305 -16.2849
ltibia 24.0937
lfoot -9.06435 -16.4872
ltoes 1.98374
75
root -21.4809 19.4481 0.173803 -225.75 -88.6618 -129.199
lowerback -13.0321 5.43607 -4.04815
upperback 3.09541 8.54417 -7.47068
thorax 11.3334 4.01604 -3.97482
lowerneck -0.683603 -7.14254 5.49368
upperneck 2.90982 -9.51644 -4.08798
head 0.546349 -4.74526 -2.23498
rclavicle 5.4467e-014 -9.54166e-014
rhumerus 42.6582 6.16298 -38.1754
rradius 53.5542
rwrist -27.044
rhand -6.95792 4.47703
rfingers 7.12502
rthumb 18.9113 -24.6236
lclavicle 5.4467e-014 -9.54166e-014
lhumerus -23.7664 21.9225 72.8838
lradius 15.0246
lwrist -45.8037
lhand -16.9216 -6.22284
lfingers 7.12502
lthumb 9.311 23.5515
rfemur -13.0439 -14.9858 17.8896
rtibia 25.2201
rfoot -7.91054 21.369
rtoes 6.10703
lfemur -11.6377 16.006 -16.2602
ltibia 24.1037
lfoot -9.10673 -16.455
ltoes 1.78313
